<?xml version="1.0" encoding="UTF-8" standalone="no"?>
<svg width="220px" height="38px" viewBox="0 0 220 38" version="1.1" xmlns="http://www.w3.org/2000/svg" xmlns:xlink="http://www.w3.org/1999/xlink" xmlns:sketch="http://www.bohemiancoding.com/sketch/ns">
    <!-- Generator: Sketch 3.0.1 (7597) - http://www.bohemiancoding.com/sketch -->
    <title>New Bamboo Logo</title>
    <description>Created with Sketch.</description>
    <defs></defs>
    <g id="Page-1" stroke="none" stroke-width="1" fill="none" fill-rule="evenodd" sketch:type="MSPage">
        <g id="Group" sketch:type="MSLayerGroup" fill="#8AA717">
            <path d="M28.791,21.107 L30.908,21.107 L30.908,24.057 C31.754,22.927 32.691,22.081 33.72,21.522 C34.748,20.964 35.867,20.684 37.076,20.684 C38.305,20.684 39.397,20.995 40.35,21.622 C41.303,22.249 42.006,23.085 42.459,24.145 C42.913,25.204 43.139,26.85 43.139,29.087 L43.139,37.556 L41.022,37.556 L41.022,29.71 C41.022,27.816 40.942,26.549 40.786,25.916 C40.541,24.827 40.071,24.009 39.377,23.46 C38.681,22.91 37.774,22.633 36.653,22.633 C35.375,22.633 34.227,23.056 33.214,23.901 C32.202,24.748 31.533,25.797 31.21,27.047 C31.009,27.864 30.909,29.357 30.909,31.522 L30.909,37.557 L28.792,37.557 L28.791,21.107 L28.791,21.107 Z" id="Shape" sketch:type="MSShapeGroup"></path>
            <path d="M60.285,32.103 L62.069,33.037 C61.484,34.187 60.808,35.112 60.042,35.822 C59.275,36.526 58.413,37.064 57.452,37.428 C56.494,37.797 55.41,37.98 54.199,37.98 C51.515,37.98 49.417,37.099 47.904,35.341 C46.392,33.581 45.635,31.597 45.635,29.377 C45.635,27.291 46.276,25.43 47.557,23.797 C49.18,21.723 51.355,20.681 54.078,20.681 C56.881,20.681 59.12,21.746 60.797,23.872 C61.987,25.376 62.592,27.25 62.613,29.497 L47.81,29.497 C47.851,31.407 48.461,32.975 49.643,34.196 C50.821,35.416 52.282,36.031 54.016,36.031 C54.853,36.031 55.669,35.885 56.462,35.592 C57.253,35.301 57.925,34.913 58.483,34.434 C59.04,33.952 59.638,33.175 60.285,32.103 L60.285,32.103 L60.285,32.103 Z M60.285,27.671 C60.002,26.543 59.591,25.643 59.05,24.967 C58.51,24.29 57.797,23.748 56.908,23.33 C56.019,22.921 55.087,22.711 54.107,22.711 C52.491,22.711 51.104,23.23 49.944,24.271 C49.095,25.024 48.456,26.158 48.023,27.672 L60.285,27.671 L60.285,27.671 Z" id="Shape" sketch:type="MSShapeGroup"></path>
            <path d="M63.098,21.107 L65.274,21.107 L70.315,33.055 L75.564,21.107 L75.947,21.107 L81.231,33.055 L86.37,21.107 L88.571,21.107 L81.426,37.557 L81.034,37.557 L75.773,25.78 L70.518,37.557 L70.123,37.557 L63.098,21.107 L63.098,21.107 Z" id="Shape" sketch:type="MSShapeGroup"></path>
            <path d="M97.282,37.56 L97.282,14.76 L99.401,14.76 L99.401,23.938 C100.284,22.851 101.278,22.037 102.377,21.495 C103.475,20.956 104.676,20.688 105.987,20.688 C108.311,20.688 110.299,21.531 111.946,23.22 C113.592,24.908 114.413,26.957 114.413,29.365 C114.413,31.744 113.58,33.775 111.92,35.458 C110.259,37.141 108.26,37.979 105.924,37.979 C104.584,37.979 103.372,37.693 102.284,37.119 C101.196,36.545 100.235,35.681 99.399,34.536 L99.399,37.559 L97.282,37.559 L97.282,37.56 L97.282,37.56 Z M105.748,35.942 C106.923,35.942 108.01,35.651 109.007,35.07 C110.002,34.49 110.796,33.677 111.382,32.629 C111.971,31.582 112.265,30.474 112.265,29.306 C112.265,28.139 111.967,27.023 111.377,25.965 C110.781,24.904 109.987,24.079 108.986,23.491 C107.985,22.903 106.915,22.607 105.778,22.607 C104.622,22.607 103.523,22.903 102.483,23.491 C101.444,24.084 100.645,24.875 100.085,25.873 C99.525,26.87 99.25,27.995 99.25,29.243 C99.25,31.148 99.875,32.742 101.127,34.018 C102.378,35.301 103.918,35.942 105.748,35.942 L105.748,35.942 L105.748,35.942 Z" id="Shape" sketch:type="MSShapeGroup"></path>
            <path d="M133.417,21.107 L133.417,37.557 L131.33,37.557 L131.33,34.728 C130.446,35.804 129.45,36.617 128.346,37.161 C127.243,37.708 126.035,37.979 124.728,37.979 C122.4,37.979 120.41,37.137 118.764,35.445 C117.116,33.757 116.293,31.703 116.293,29.285 C116.293,26.92 117.124,24.89 118.787,23.206 C120.451,21.522 122.45,20.681 124.789,20.681 C126.139,20.681 127.36,20.97 128.454,21.544 C129.548,22.12 130.51,22.982 131.334,24.13 L131.334,21.106 L133.417,21.107 L133.417,21.107 Z M124.958,22.729 C123.782,22.729 122.693,23.019 121.695,23.596 C120.699,24.178 119.907,24.992 119.317,26.038 C118.729,27.084 118.435,28.192 118.435,29.358 C118.435,30.516 118.73,31.624 119.322,32.676 C119.917,33.733 120.716,34.56 121.715,35.146 C122.717,35.735 123.793,36.029 124.94,36.029 C126.098,36.029 127.195,35.735 128.232,35.152 C129.268,34.568 130.069,33.777 130.627,32.782 C131.182,31.785 131.462,30.663 131.462,29.417 C131.462,27.514 130.835,25.922 129.581,24.642 C128.333,23.367 126.79,22.729 124.958,22.729 L124.958,22.729 L124.958,22.729 Z" id="Shape" sketch:type="MSShapeGroup"></path>
            <path d="M136.926,21.107 L139.044,21.107 L139.044,23.949 C139.782,22.9 140.538,22.133 141.313,21.65 C142.386,21.007 143.508,20.68 144.687,20.68 C145.485,20.68 146.241,20.838 146.957,21.15 C147.675,21.462 148.261,21.88 148.711,22.398 C149.165,22.917 149.559,23.661 149.892,24.627 C150.596,23.336 151.475,22.358 152.531,21.689 C153.59,21.016 154.723,20.68 155.943,20.68 C157.078,20.68 158.083,20.969 158.953,21.544 C159.822,22.119 160.469,22.918 160.89,23.948 C161.31,24.974 161.525,26.517 161.525,28.573 L161.525,37.556 L159.363,37.556 L159.363,28.573 C159.363,26.81 159.237,25.597 158.985,24.939 C158.732,24.277 158.303,23.747 157.697,23.341 C157.09,22.938 156.364,22.738 155.521,22.738 C154.496,22.738 153.56,23.039 152.71,23.642 C151.862,24.248 151.241,25.055 150.849,26.061 C150.457,27.07 150.261,28.755 150.261,31.11 L150.261,37.55 L148.142,37.55 L148.142,29.13 C148.142,27.145 148.02,25.796 147.774,25.087 C147.524,24.376 147.093,23.806 146.481,23.379 C145.866,22.949 145.133,22.737 144.29,22.737 C143.311,22.737 142.395,23.032 141.545,23.617 C140.693,24.21 140.063,25.002 139.655,26 C139.249,26.996 139.045,28.524 139.045,30.58 L139.045,37.55 L136.926,37.55 L136.926,21.107 L136.926,21.107 Z" id="Shape" sketch:type="MSShapeGroup"></path>
            <path d="M164.881,37.56 L164.881,14.76 L167,14.76 L167,23.938 C167.884,22.851 168.879,22.037 169.977,21.495 C171.074,20.956 172.277,20.688 173.586,20.688 C175.909,20.688 177.899,21.531 179.544,23.22 C181.19,24.908 182.012,26.957 182.012,29.365 C182.012,31.744 181.181,33.775 179.52,35.458 C177.858,37.141 175.859,37.979 173.523,37.979 C172.184,37.979 170.972,37.693 169.883,37.119 C168.795,36.545 167.834,35.681 166.998,34.534 L166.998,37.558 L164.881,37.56 L164.881,37.56 Z M173.349,35.942 C174.522,35.942 175.611,35.651 176.607,35.07 C177.602,34.49 178.397,33.677 178.982,32.629 C179.57,31.582 179.865,30.474 179.865,29.306 C179.865,28.139 179.568,27.023 178.978,25.965 C178.381,24.904 177.587,24.079 176.586,23.491 C175.586,22.9 174.515,22.607 173.379,22.607 C172.223,22.607 171.124,22.903 170.083,23.491 C169.042,24.084 168.247,24.875 167.686,25.873 C167.125,26.87 166.848,27.995 166.848,29.243 C166.848,31.148 167.475,32.742 168.727,34.018 C169.978,35.301 171.517,35.942 173.349,35.942 L173.349,35.942 L173.349,35.942 Z" id="Shape" sketch:type="MSShapeGroup"></path>
            <path d="M192.413,20.685 C194.947,20.685 197.048,21.606 198.713,23.437 C200.227,25.111 200.984,27.089 200.984,29.377 C200.984,31.673 200.185,33.681 198.582,35.401 C196.983,37.118 194.926,37.979 192.409,37.979 C189.884,37.979 187.823,37.118 186.224,35.401 C184.624,33.68 183.822,31.672 183.822,29.377 C183.822,27.098 184.579,25.123 186.093,23.449 C187.761,21.607 189.868,20.685 192.413,20.685 L192.413,20.685 L192.413,20.685 Z M192.405,22.758 C190.645,22.758 189.134,23.406 187.869,24.708 C186.606,26.007 185.973,27.578 185.973,29.424 C185.973,30.614 186.26,31.723 186.838,32.749 C187.419,33.775 188.196,34.571 189.175,35.131 C190.156,35.688 191.236,35.967 192.406,35.967 C193.58,35.967 194.657,35.688 195.636,35.131 C196.615,34.571 197.396,33.776 197.973,32.749 C198.551,31.723 198.839,30.614 198.839,29.424 C198.839,27.579 198.204,26.007 196.935,24.708 C195.665,23.408 194.155,22.758 192.405,22.758 L192.405,22.758 L192.405,22.758 Z" id="Shape" sketch:type="MSShapeGroup"></path>
            <path d="M211.45,20.685 C213.986,20.685 216.086,21.606 217.75,23.437 C219.264,25.111 220.021,27.089 220.021,29.377 C220.021,31.673 219.222,33.681 217.621,35.401 C216.02,37.118 213.964,37.979 211.446,37.979 C208.921,37.979 206.86,37.118 205.262,35.401 C203.661,33.68 202.859,31.672 202.859,29.377 C202.859,27.098 203.616,25.123 205.129,23.449 C206.799,21.607 208.904,20.685 211.45,20.685 L211.45,20.685 L211.45,20.685 Z M211.441,22.758 C209.681,22.758 208.171,23.406 206.906,24.708 C205.641,26.007 205.01,27.578 205.01,29.424 C205.01,30.614 205.297,31.723 205.876,32.749 C206.453,33.775 207.231,34.571 208.214,35.131 C209.192,35.688 210.273,35.967 211.443,35.967 C212.615,35.967 213.693,35.688 214.673,35.131 C215.655,34.571 216.434,33.776 217.011,32.749 C217.586,31.723 217.875,30.614 217.875,29.424 C217.875,27.579 217.241,26.007 215.972,24.708 C214.703,23.408 213.19,22.758 211.441,22.758 L211.441,22.758 L211.441,22.758 Z" id="Shape" sketch:type="MSShapeGroup"></path>
            <path d="M24.401,0.187 C10.497,4.557 8.725,22.76 8.499,27.628 L9.575,27.628 C23.766,12.093 23.505,10.944 24.401,0.187 L24.401,0.187 L24.401,0.187 Z M7.456,28.286 C7.456,28.286 7.203,34.702 10.877,37.979 C11.676,37.295 12.132,36.954 12.132,36.954 C12.132,36.954 9.509,34.329 9.598,28.263 C8.481,28.263 7.456,28.286 7.456,28.286 L7.456,28.286 L7.456,28.286 Z" id="Shape" sketch:type="MSShapeGroup"></path>
            <path d="M8.49,27.628 C8.517,23.925 8.028,11.635 0.498,9.687 C-1.49,15.937 3.102,22.973 7.445,27.628 L8.49,27.628 L8.49,27.628 Z" id="Shape" sketch:type="MSShapeGroup"></path>
        </g>
    </g>
</svg>