<?xml version="1.0" encoding="UTF-8" standalone="no"?>
<svg width="642px" height="342px" viewBox="0 0 642 342" version="1.1" xmlns="http://www.w3.org/2000/svg" xmlns:xlink="http://www.w3.org/1999/xlink" xmlns:sketch="http://www.bohemiancoding.com/sketch/ns">
    <!-- Generator: Sketch 3.1.1 (8761) - http://www.bohemiancoding.com/sketch -->
    <title>meteorlogo</title>
    <desc>Created with Sketch.</desc>
    <defs>
        <linearGradient x1="50%" y1="0%" x2="50%" y2="85.7142857%" id="linearGradient-1">
            <stop stop-color="#F6632F" offset="0%"></stop>
            <stop stop-color="#F6C22F" offset="44.3877551%"></stop>
            <stop stop-color="#F9EFC1" offset="100%"></stop>
        </linearGradient>
    </defs>
    <g id="Page-1" stroke="none" stroke-width="1" fill="none" fill-rule="evenodd" sketch:type="MSPage">
        <path d="M542.430013,313.244922 C543.282616,317.397169 543.730441,321.69706 543.730441,326.101546 C543.730441,361.218802 515.262281,389.686962 480.145025,389.686962 C445.027769,389.686962 416.559609,361.218802 416.559609,326.101546 C416.559609,321.69706 417.007434,317.397169 417.860037,313.244922 L480.145025,-66.3969119 L542.430013,313.244922 L542.430013,313.244922 Z M480.145025,380.36554 C510.114201,380.36554 534.409019,356.070722 534.409019,326.101546 C534.409019,296.13237 510.114201,271.837552 480.145025,271.837552 C450.175849,271.837552 425.881031,296.13237 425.881031,326.101546 C425.881031,356.070722 450.175849,380.36554 480.145025,380.36554 Z" id="Oval-1" fill="url(#linearGradient-1)" sketch:type="MSShapeGroup" transform="translate(480.145025, 161.645025) rotate(-315.000000) translate(-480.145025, -161.645025) "></path>
        <path d="M1.46012529,218.272 L7.99412529,218.272 L25.0221253,257.476 L42.0501253,218.272 L48.2541253,218.272 L48.2541253,265 L43.8981253,265 L43.8981253,223.816 L43.7661253,223.816 L25.9461253,265 L24.0321253,265 L5.94812529,223.816 L5.81612529,223.816 L5.81612529,265 L1.46012529,265 L1.46012529,218.272 Z M63.5867502,218.272 L92.1647502,218.272 L92.1647502,222.232 L67.9427502,222.232 L67.9427502,238.864 L90.6467502,238.864 L90.6467502,242.824 L67.9427502,242.824 L67.9427502,261.04 L93.2207502,261.04 L93.2207502,265 L63.5867502,265 L63.5867502,218.272 Z M116.077375,222.232 L100.105375,222.232 L100.105375,218.272 L136.405375,218.272 L136.405375,222.232 L120.433375,222.232 L120.433375,265 L116.077375,265 L116.077375,222.232 Z M146.59,218.272 L175.168,218.272 L175.168,222.232 L150.946,222.232 L150.946,238.864 L173.65,238.864 L173.65,242.824 L150.946,242.824 L150.946,261.04 L176.224,261.04 L176.224,265 L146.59,265 L146.59,218.272 Z M185.682625,241.636 C185.682625,238.071982 186.276619,234.794015 187.464625,231.802 C188.652631,228.809985 190.302614,226.225011 192.414625,224.047 C194.526635,221.868989 197.06761,220.164006 200.037625,218.932 C203.00764,217.699994 206.274607,217.084 209.838625,217.084 C213.402643,217.084 216.66961,217.699994 219.639625,218.932 C222.60964,220.164006 225.150614,221.868989 227.262625,224.047 C229.374635,226.225011 231.024619,228.809985 232.212625,231.802 C233.400631,234.794015 233.994625,238.071982 233.994625,241.636 C233.994625,245.200018 233.400631,248.488985 232.212625,251.503 C231.024619,254.517015 229.374635,257.112989 227.262625,259.291 C225.150614,261.469011 222.60964,263.162994 219.639625,264.373 C216.66961,265.583006 213.402643,266.188 209.838625,266.188 C206.274607,266.188 203.00764,265.583006 200.037625,264.373 C197.06761,263.162994 194.526635,261.469011 192.414625,259.291 C190.302614,257.112989 188.652631,254.517015 187.464625,251.503 C186.276619,248.488985 185.682625,245.200018 185.682625,241.636 L185.682625,241.636 Z M190.038625,241.636 C190.038625,244.540015 190.50062,247.245987 191.424625,249.754 C192.34863,252.262013 193.668616,254.439991 195.384625,256.288 C197.100633,258.136009 199.179613,259.587995 201.621625,260.644 C204.063637,261.700005 206.80261,262.228 209.838625,262.228 C212.87464,262.228 215.613613,261.700005 218.055625,260.644 C220.497637,259.587995 222.576616,258.136009 224.292625,256.288 C226.008633,254.439991 227.32862,252.262013 228.252625,249.754 C229.17663,247.245987 229.638625,244.540015 229.638625,241.636 C229.638625,238.731985 229.17663,236.026013 228.252625,233.518 C227.32862,231.009987 226.008633,228.832009 224.292625,226.984 C222.576616,225.135991 220.497637,223.684005 218.055625,222.628 C215.613613,221.571995 212.87464,221.044 209.838625,221.044 C206.80261,221.044 204.063637,221.571995 201.621625,222.628 C199.179613,223.684005 197.100633,225.135991 195.384625,226.984 C193.668616,228.832009 192.34863,231.009987 191.424625,233.518 C190.50062,236.026013 190.038625,238.731985 190.038625,241.636 L190.038625,241.636 Z M251.10925,238.864 L260.34925,238.864 C262.637261,238.864 264.496243,238.578003 265.92625,238.006 C267.356257,237.433997 268.467246,236.730004 269.25925,235.894 C270.051254,235.057996 270.590248,234.156005 270.87625,233.188 C271.162251,232.219995 271.30525,231.340004 271.30525,230.548 C271.30525,229.755996 271.162251,228.876005 270.87625,227.908 C270.590248,226.939995 270.051254,226.038004 269.25925,225.202 C268.467246,224.365996 267.356257,223.662003 265.92625,223.09 C264.496243,222.517997 262.637261,222.232 260.34925,222.232 L251.10925,222.232 L251.10925,238.864 Z M246.75325,218.272 L259.02925,218.272 C259.645253,218.272 260.481245,218.294 261.53725,218.338 C262.593255,218.382 263.737244,218.513999 264.96925,218.734 C266.201256,218.954001 267.455243,219.305998 268.73125,219.79 C270.007256,220.274002 271.151245,220.977995 272.16325,221.902 C273.175255,222.826005 274.011247,223.991993 274.67125,225.4 C275.331253,226.808007 275.66125,228.52399 275.66125,230.548 C275.66125,232.792011 275.276254,234.639993 274.50625,236.092 C273.736246,237.544007 272.768256,238.720995 271.60225,239.623 C270.436244,240.525005 269.149257,241.195998 267.74125,241.636 C266.333243,242.076002 264.991256,242.383999 263.71525,242.56 L277.31125,265 L272.36125,265 L259.22725,242.824 L251.10925,242.824 L251.10925,265 L246.75325,265 L246.75325,218.272 Z M0.195999809,279.944 L19.5479998,279.944 L32.9139998,317.828 L33.0779998,317.828 L46.5259998,279.944 L65.7959998,279.944 L65.7959998,338 L53.0039998,338 L53.0039998,293.474 L52.8399998,293.474 L37.5879998,338 L27.8299998,338 L13.1519998,293.474 L12.9879998,293.474 L12.9879998,338 L0.195999809,338 L0.195999809,279.944 Z M80.3399999,279.944 L93.1319999,279.944 L93.1319999,338 L80.3399999,338 L80.3399999,279.944 Z M107.676,279.944 L125.06,279.944 L149.742,320.288 L149.906,320.288 L149.906,279.944 L162.698,279.944 L162.698,338 L145.97,338 L120.632,296.672 L120.468,296.672 L120.468,338 L107.676,338 L107.676,279.944 Z M177.406,279.944 L196.594,279.944 C201.24069,279.944 205.654979,280.463328 209.837,281.502 C214.019021,282.540672 217.667985,284.221655 220.784,286.545 C223.900016,288.868345 226.373658,291.888648 228.205,295.606 C230.036343,299.323352 230.952,303.833307 230.952,309.136 C230.952,313.837357 230.063676,317.978315 228.287,321.559 C226.510325,325.139685 224.118682,328.146321 221.112,330.579 C218.105318,333.011679 214.63402,334.85666 210.698,336.114 C206.76198,337.37134 202.634688,338 198.316,338 L177.406,338 L177.406,279.944 Z M190.198,326.192 L196.84,326.192 C199.792015,326.192 202.538987,325.891336 205.081,325.29 C207.623013,324.688664 209.823324,323.691007 211.682,322.297 C213.540676,320.902993 215.002995,319.071678 216.069,316.803 C217.135005,314.534322 217.668,311.760016 217.668,308.48 C217.668,305.637319 217.135005,303.163677 216.069,301.059 C215.002995,298.954323 213.568009,297.218674 211.764,295.852 C209.959991,294.485326 207.841679,293.460337 205.409,292.777 C202.976321,292.093663 200.42068,291.752 197.742,291.752 L190.198,291.752 L190.198,326.192 Z M271.244,294.13 C270.205328,292.817993 268.797676,291.84767 267.021,291.219 C265.244325,290.59033 263.563341,290.276 261.978,290.276 C261.048662,290.276 260.092005,290.385332 259.108,290.604 C258.123995,290.822668 257.194671,291.164331 256.32,291.629 C255.445329,292.093669 254.73467,292.708663 254.188,293.474 C253.641331,294.239337 253.368,295.168661 253.368,296.262 C253.368,298.011342 254.023994,299.350662 255.336,300.28 C256.648007,301.209338 258.301657,302.001997 260.297,302.658 C262.292344,303.314003 264.437989,303.969997 266.734,304.626 C269.030012,305.282003 271.175657,306.211327 273.171,307.414 C275.166344,308.616673 276.819994,310.229323 278.132,312.252 C279.444007,314.274677 280.1,316.98065 280.1,320.37 C280.1,323.595349 279.498673,326.410655 278.296,328.816 C277.093328,331.221345 275.46701,333.216659 273.417,334.802 C271.36699,336.387341 268.989014,337.562663 266.283,338.328 C263.576987,339.093337 260.720682,339.476 257.714,339.476 C253.941981,339.476 250.44335,338.902006 247.218,337.754 C243.992651,336.605994 240.986014,334.747346 238.198,332.178 L247.3,322.174 C248.612007,323.923342 250.265657,325.276329 252.261,326.233 C254.256344,327.189671 256.31999,327.668 258.452,327.668 C259.490672,327.668 260.542995,327.545001 261.609,327.299 C262.675006,327.052999 263.631663,326.684002 264.479,326.192 C265.326338,325.699998 266.009664,325.071337 266.529,324.306 C267.048336,323.540663 267.308,322.638672 267.308,321.6 C267.308,319.850658 266.63834,318.470338 265.299,317.459 C263.95966,316.447662 262.278677,315.58667 260.256,314.876 C258.233323,314.16533 256.046679,313.45467 253.696,312.744 C251.345322,312.03333 249.158677,311.076673 247.136,309.874 C245.113323,308.671327 243.43234,307.08601 242.093,305.118 C240.75366,303.14999 240.084,300.553349 240.084,297.328 C240.084,294.211984 240.698994,291.478678 241.929,289.128 C243.159006,286.777322 244.79899,284.809341 246.849,283.224 C248.89901,281.638659 251.26332,280.449671 253.942,279.657 C256.62068,278.864329 259.381319,278.468 262.224,278.468 C265.504017,278.468 268.674652,278.932662 271.736,279.862 C274.797349,280.791338 277.557988,282.349322 280.018,284.536 L271.244,294.13 Z" id="METEOR" fill="#FFFFFF" sketch:type="MSShapeGroup"></path>
    </g>
</svg>